<?xml version="1.0" standalone="no"?>
<!DOCTYPE svg PUBLIC "-//W3C//DTD SVG 20010904//EN"
 "http://www.w3.org/TR/2001/REC-SVG-20010904/DTD/svg10.dtd">
<svg version="1.0" xmlns="http://www.w3.org/2000/svg"
 width="512.000000pt" height="512.000000pt" viewBox="0 0 512.000000 512.000000"
 preserveAspectRatio="xMidYMid meet">
<metadata>
Created by potrace 1.11, written by Peter Selinger 2001-2013
</metadata>
<g transform="translate(0.000000,512.000000) scale(0.100000,-0.100000)"
fill="#000000" stroke="none">
<path d="M829 4316 c-44 -21 -50 -51 -25 -120 12 -33 21 -69 21 -78 0 -9 -17
-49 -38 -90 -53 -103 -55 -176 -6 -285 26 -57 62 -76 107 -57 50 20 58 67 24
130 -25 47 -21 82 20 163 50 98 55 174 19 258 -35 79 -73 104 -122 79z"/>
<path d="M1255 4308 c-29 -23 -32 -58 -10 -112 25 -58 24 -90 -1 -138 -66
-120 -73 -186 -33 -289 34 -86 92 -117 139 -74 27 24 29 53 8 109 -28 73 -25
103 18 184 33 63 38 82 37 135 0 67 -30 152 -64 183 -27 24 -65 25 -94 2z"/>
<path d="M1720 4322 c-52 -17 -62 -61 -32 -134 23 -54 20 -95 -10 -144 -38
-61 -49 -95 -49 -156 -2 -149 89 -257 163 -191 25 23 27 46 7 104 -28 77 -24
111 18 186 33 59 36 73 36 137 -1 125 -65 221 -133 198z"/>
<path d="M2134 4305 c-28 -28 -31 -74 -8 -111 26 -38 22 -102 -8 -149 -59 -94
-66 -191 -20 -290 22 -47 37 -65 58 -72 36 -13 68 -2 88 29 17 27 16 41 -12
112 -22 57 -17 97 21 154 30 46 47 122 40 182 -6 49 -42 128 -67 150 -28 23
-66 20 -92 -5z"/>
<path d="M103 3441 c-26 -12 -52 -35 -70 -62 -26 -39 -28 -51 -30 -143 -2
-107 6 -137 50 -186 12 -14 34 -31 48 -37 l27 -12 0 -579 c1 -641 2 -658 64
-776 45 -84 156 -193 238 -233 97 -47 145 -56 326 -62 20 -1 22 -7 23 -56 0
-45 -3 -55 -17 -56 -100 -4 -162 -31 -211 -92 -27 -33 -51 -112 -51 -169 0
-33 -3 -38 -23 -38 -31 0 -67 -39 -67 -72 0 -14 9 -36 19 -49 l19 -24 1074 -2
c709 -1 1082 1 1099 8 25 10 49 45 49 73 0 28 -41 66 -71 66 -29 0 -29 1 -29
55 0 131 -82 223 -215 241 -27 3 -52 8 -55 11 -3 2 -5 27 -5 54 0 48 0 49 30
50 187 5 261 23 363 88 116 75 190 172 233 306 21 64 23 89 23 308 l1 239 -28
24 c-35 30 -59 30 -93 1 l-27 -24 -3 -234 c-1 -188 -5 -243 -18 -279 -55 -150
-177 -250 -329 -270 -34 -4 -465 -7 -957 -5 -807 2 -899 4 -939 18 -65 25
-111 55 -159 104 -36 38 -81 107 -79 123 0 3 -4 14 -10 25 -6 11 -14 38 -17
60 -5 30 -11 1018 -7 1138 1 16 68 17 1259 17 l1257 0 0 -191 c-1 -209 6 -244
49 -255 73 -18 102 23 101 141 -1 84 -6 78 80 90 104 14 202 63 272 136 25 27
65 56 88 65 41 15 133 16 127 1 -4 -11 28 -69 48 -89 10 -9 35 -26 56 -37 38
-21 52 -21 689 -21 427 0 663 4 688 11 47 13 104 71 117 119 15 55 12 184 -6
228 -8 22 -27 49 -41 62 -59 51 -46 50 -753 50 -638 0 -662 -1 -699 -20 -45
-22 -75 -57 -93 -106 -11 -31 -16 -34 -53 -35 -109 -2 -192 -35 -256 -103 -57
-61 -108 -89 -197 -110 -45 -10 -62 -11 -63 -3 -5 76 -4 77 27 92 67 32 97 96
96 211 0 96 -12 141 -50 177 -61 58 -46 57 -721 57 l-619 0 -25 -29 c-30 -36
-26 -72 11 -101 24 -19 42 -20 633 -20 446 0 610 -3 615 -11 9 -14 8 -135 -1
-149 -10 -16 -2737 -14 -2753 2 -16 16 -16 130 0 146 9 9 160 12 618 12 652 1
629 -1 650 54 11 31 -7 79 -35 90 -9 3 -294 6 -633 6 -585 0 -619 -1 -659 -19z
m3707 -376 l0 -85 -59 0 c-90 0 -91 1 -91 84 0 40 3 76 7 79 3 4 37 7 75 7
l68 0 0 -85z m1154 69 c11 -30 6 -131 -7 -142 -9 -8 -164 -10 -502 -9 l-490 2
-3 69 c-2 38 -1 75 2 83 4 11 94 13 500 13 441 0 495 -2 500 -16z m-3959
-1842 c0 -51 -11 -62 -52 -54 -23 4 -25 12 -25 72 0 36 2 39 30 42 38 5 47 -6
47 -60z m318 59 c26 -1 27 -3 27 -56 0 -53 -1 -55 -27 -56 -109 -4 -146 -3
-156 3 -7 4 -12 29 -12 55 -1 54 8 59 94 56 25 -1 58 -2 74 -2z m236 -1 c14 0
17 -9 16 -51 -1 -53 -11 -67 -48 -64 -19 1 -22 8 -25 50 -4 58 3 79 24 71 9
-3 23 -6 33 -6z m361 -55 l0 -60 -83 2 c-45 0 -89 2 -97 2 -12 1 -16 13 -15
54 0 62 1 62 116 62 l79 0 0 -60z m227 0 c0 -58 -8 -65 -54 -57 -21 4 -23 10
-23 58 0 50 1 53 28 56 44 6 49 0 49 -57z m247 -234 c21 -20 26 -34 26 -71 l0
-47 -882 1 -883 1 -3 35 c-3 42 15 81 46 96 16 8 259 11 846 10 l824 -1 26
-24z"/>
</g>
</svg>
